<svg width="263" height="104" viewBox="0 0 263 104" fill="none" xmlns="http://www.w3.org/2000/svg">
<g clip-path="url(#clip0_88_355)">
<path d="M36.4952 81.9269C35.7815 81.7702 35.1807 81.2718 34.679 80.4245C34.1772 79.5772 33.9086 78.0534 33.8592 75.8461C33.7602 73.2329 33.7461 70.9117 33.8238 68.8824C33.9016 66.8602 33.9652 64.8451 34.0146 62.8443C34.0641 61.3348 34.1136 59.9392 34.1701 58.6718C34.2196 57.4044 34.2479 56.2651 34.2479 55.2683C34.2479 54.4993 34.1207 53.8655 33.8662 53.3671C33.6118 52.8687 33.3009 52.4842 32.9334 52.2136C32.5659 51.9431 32.1842 51.7437 31.7885 51.6155C31.3927 51.4873 31.0959 51.3948 30.8909 51.3449H18.5233C18.0144 51.5016 17.6964 51.6013 17.5692 51.6511C17.442 51.701 17.1381 51.8718 16.6505 52.1495C16.2406 52.4059 15.9155 52.7975 15.6752 53.3244C15.4349 53.8513 15.3996 54.4708 15.5833 55.1899C15.9367 56.8846 16.389 58.6575 16.9402 60.516C17.4844 62.3744 18.0427 64.2257 18.601 66.077C19.0816 67.5865 19.4632 69.0462 19.7459 70.4417C20.0286 71.8373 20.1629 73.062 20.1629 74.1159C20.1629 74.8564 20.1346 75.5969 20.0851 76.3303C20.0357 77.0637 19.9438 77.7544 19.8166 78.4094C19.6894 79.0645 19.5268 79.6413 19.3219 80.1397C19.1169 80.6381 18.8484 80.9941 18.5233 81.2006C17.9155 81.2006 17.237 81.1721 16.502 81.1223C15.7671 81.0725 14.9402 81.0297 14.0426 81.0084C13.138 80.9799 12.078 80.9799 10.8553 81.0084C9.6327 81.0368 8.18391 81.0725 6.50191 81.1223C4.77044 81.1721 3.51954 81.3074 2.74214 81.5281C1.96475 81.7489 1.23682 82.0622 0.544235 82.468H0.388756C0.289815 82.0551 0.22621 81.4783 0.197941 80.7378C0.169672 79.9973 0.134336 79.2568 0.0848654 78.5234C0.0353948 77.79 0.00712585 77.0993 0.00712585 76.4442V74.9632C0.00712585 73.297 0.0848654 71.9726 0.233277 71.0043C0.388756 70.0288 0.579572 69.2669 0.826925 68.7186C1.06721 68.1704 1.31456 67.793 1.56898 67.5865C1.8234 67.38 2.07782 67.2305 2.33225 67.1237C2.81282 66.967 3.60435 66.8602 4.69977 66.7961C5.79519 66.732 6.64326 66.7249 7.25811 66.7748C7.15916 66.1054 7.03902 65.2866 6.91181 64.3111C6.7846 63.3356 6.68566 62.3459 6.60792 61.349C6.53018 60.3522 6.49484 59.4194 6.49484 58.5579C6.49484 57.6963 6.57258 57.027 6.721 56.5357C6.87648 56.0729 7.16623 55.6243 7.59733 55.1899C7.80228 54.9834 8.02843 54.777 8.28286 54.5776L14.4667 51.9644C14.5162 51.8078 14.5162 51.644 14.4667 51.466C14.4172 51.288 14.3112 51.1954 14.1628 51.1954C13.7317 51.2951 13.2299 51.3877 12.6575 51.466C12.085 51.5443 11.6186 51.6084 11.2652 51.6582C10.6786 51.7081 10.2193 51.7508 9.89418 51.7722C9.56202 51.8006 9.10265 51.8078 8.52314 51.8078C7.94363 51.8078 7.35705 51.7294 6.86234 51.5799C6.36763 51.4233 5.74572 51.0316 5.01073 50.3908C4.07078 49.5221 3.51954 48.1479 3.37113 46.2752C3.21565 44.4026 3.21565 42.4943 3.37113 40.5433C3.47007 39.34 3.59728 38.2008 3.75276 37.1185C3.90824 36.0433 4.19799 35.2244 4.6291 34.6548C5.039 33.9641 5.61851 33.5298 6.38177 33.3447C7.14503 33.1667 8.22632 32.9744 9.62563 32.7679L9.70337 33.0741C9.75284 33.6864 9.83058 34.2418 9.92952 34.726C10.0285 35.139 10.1062 35.5164 10.1557 35.8582C10.2051 36.207 10.2334 36.4278 10.2334 36.5346C10.2334 36.8408 10.4525 36.9476 10.8836 36.8408C15.5692 36.7411 19.9933 36.6841 24.17 36.6841C28.3467 36.6841 32.05 36.7126 35.2797 36.7624C36.679 36.7624 37.9652 36.9476 39.1384 37.3178C40.3116 37.6881 41.3292 38.2933 42.1914 39.1264C43.0536 39.9595 43.7392 41.0347 44.2339 42.359C44.7286 43.6834 44.9759 45.314 44.9759 47.265C44.9759 47.621 44.9618 48.2618 44.9406 49.1875C44.9123 50.1131 44.8911 51.1883 44.8629 52.4201C44.8346 53.6519 44.8063 54.9834 44.771 56.4218C44.7356 57.8601 44.7003 59.2628 44.672 60.637C44.6438 62.0112 44.6226 63.3 44.5943 64.5034C44.566 65.7067 44.559 66.6822 44.559 67.4298C44.5095 69.9433 44.559 72.1862 44.7286 74.1586C44.8911 76.1309 45.2586 77.4838 45.8169 78.1958L36.5023 81.9269H36.4952Z" fill="white"/>
<path d="M70.2836 78.6942L60.5874 81.9269C59.5414 81.8272 58.9337 81.286 58.757 80.3106C58.5803 79.3351 58.5167 78.0534 58.5662 76.4656L58.7923 54.2714C58.7923 53.6804 58.8276 53.125 58.9054 52.5981C58.9831 52.0712 59.0679 51.7294 59.1739 51.5799C59.3011 51.4802 59.2729 51.4233 59.0962 51.4233C58.9973 51.4731 58.8912 51.5016 58.7923 51.5016H58.1845C57.5485 51.6013 57.0396 51.644 56.658 51.6155C56.2764 51.587 55.923 51.5514 55.5909 51.5016C55.0325 51.4517 54.4389 51.3592 53.817 51.231C53.1951 51.1028 52.6367 50.818 52.1562 50.3837C51.6968 49.9707 51.3364 49.3868 51.0678 48.6321C50.7993 47.8773 50.6155 47.0371 50.5166 46.1115C50.4176 45.1858 50.3611 44.2103 50.3611 43.185C50.3611 42.1597 50.4106 41.1699 50.5166 40.2229C50.6155 39.0196 50.7427 37.9159 50.8982 36.912C51.0537 35.908 51.3434 35.1319 51.7745 34.5622C52.1844 33.8716 52.764 33.4372 53.5272 33.2521C54.2905 33.0741 55.3435 32.8818 56.6933 32.6753L56.8488 32.9815C56.8983 33.5939 56.976 34.1493 57.075 34.6334C57.1739 35.0464 57.2375 35.4238 57.2658 35.7656C57.2941 36.1145 57.3294 36.3352 57.3789 36.442C57.3789 36.7482 57.5979 36.855 58.029 36.7482H62.3259C63.1033 36.7482 63.8242 36.7624 64.5026 36.7838C65.174 36.8123 65.7041 36.8194 66.0857 36.8194C66.4956 36.8194 67.0186 36.9689 67.6688 37.2609C68.3189 37.5599 68.8348 38.1509 69.2165 39.0481C69.372 39.4041 69.4709 39.7743 69.5204 40.1446C69.5698 40.5149 69.6193 40.9634 69.6758 41.4903C69.7253 42.0173 69.7536 42.6438 69.7536 43.3772V46.0474C69.7536 46.7879 69.7395 48.1692 69.7182 50.1843C69.69 52.1994 69.6688 54.3711 69.6405 56.7066C69.6122 59.042 69.591 61.3277 69.5628 63.5706C69.5345 65.8135 69.5274 67.4868 69.5274 68.5904C69.478 70.3065 69.4638 71.759 69.4921 72.9339C69.5204 74.1158 69.5698 75.0771 69.6476 75.8176C69.7253 76.5581 69.8101 77.1491 69.9161 77.5906C70.0151 78.0249 70.1423 78.3881 70.2978 78.6658L70.2836 78.6942Z" fill="white"/>
<path d="M103.782 80.4815L93.8246 80.2251C88.9623 80.0542 85.1814 80.2322 82.4958 80.7663C79.8103 81.3003 77.895 81.8628 76.7572 82.4609L76.5028 82.3327C76.3332 79.9901 76.2908 77.8825 76.3756 76.0027C76.4604 74.1301 76.9904 72.6989 77.9586 71.7234C78.5523 71.2107 79.3014 70.6696 80.2131 70.0928C81.1248 69.5161 82.1919 69.0177 83.4145 68.5904L80.305 60.9859C78.6583 56.9843 78.0859 53.2745 78.5947 49.8639C78.7643 48.7104 79.153 47.4857 79.7679 46.1898C80.3827 44.8868 81.153 43.7475 82.0859 42.772L89.1319 35.9934L81.0753 28.7663C75.5346 23.7393 74.5381 18.2424 78.0929 12.2755C78.941 10.9084 79.9516 9.42024 81.1389 7.80392C82.3191 6.18759 83.6054 4.73504 84.9764 3.45338C86.3474 2.17171 87.7538 1.2603 89.1955 0.704916C90.6302 0.149528 92.0083 0.213611 93.3228 0.897166L94.3405 1.79433C94.0861 2.34972 93.8034 2.88375 93.4854 3.38929C93.1673 3.90196 93.0401 4.50719 93.1037 5.21211C93.1673 5.91702 93.4712 6.7501 94.0225 7.70423C94.5737 8.66548 95.5843 9.84746 97.0684 11.2502L127.33 39.2474L134.624 31.7711L132.277 31.6429C131.684 31.6429 130.956 31.5788 130.087 31.4506C129.217 31.3225 128.313 31.1516 127.359 30.938C126.405 30.7244 125.5 30.4253 124.631 30.0408C123.761 29.6563 123.012 29.1436 122.376 28.5028C120.814 27.0147 119.839 25.263 119.457 23.2622C119.076 21.2614 118.885 18.6411 118.885 15.4013C118.885 14.4686 118.927 13.3649 119.012 12.1117C119.097 10.8514 119.245 9.62673 119.457 8.43763C119.669 7.24853 119.91 6.16623 120.185 5.21211C120.461 4.25086 120.765 3.51746 121.104 3.00479C121.783 1.85129 122.73 1.13214 123.959 0.833082C125.182 0.534027 126.963 0.256333 129.288 0L129.415 0.3845L130.306 6.39408C130.306 6.73586 130.666 6.90675 131.387 6.90675C132.405 6.82131 133.627 6.75722 135.069 6.7145C136.504 6.67178 137.967 6.65042 139.444 6.65042C142.532 6.65042 144.815 7.44078 146.299 9.01438C147.776 10.588 148.645 13.0018 148.9 16.2344C149.324 20.9196 149.281 24.5795 148.772 27.1998C148.263 29.8201 147.606 31.5788 146.808 32.476C146.214 32.3905 145.705 32.3264 145.281 32.2837C144.857 32.241 144.285 32.1769 143.571 32.0915C142.892 31.9633 142.207 31.9562 141.507 32.0559C140.808 32.1627 140.08 32.5543 139.316 33.2379C137.578 34.7331 136.164 36.3494 135.069 38.0939C133.966 39.8455 133.33 41.4619 133.168 42.95C133.168 43.9754 133.486 45.022 134.122 46.083L145.161 56.8205C145.924 57.504 146.631 58.3229 147.288 59.2841C147.945 60.2454 148.398 61.285 148.652 62.4171C148.907 63.5492 148.928 64.7953 148.716 66.1553C148.504 67.5224 147.91 68.9037 146.942 70.3136C146.094 71.5952 145.111 72.8484 143.988 74.0874C142.864 75.3263 141.861 76.4086 140.977 77.3485C137.762 80.5883 134.949 81.756 132.539 80.866L131.903 80.4815C131.903 79.8833 131.839 79.2567 131.712 78.5946C131.585 77.9324 131.302 77.2274 130.857 76.4869C130.412 75.7464 129.733 74.8706 128.829 73.8666C127.917 72.8627 126.723 71.6807 125.245 70.3207L92.7574 39.3827C92.1638 39.9381 91.7609 40.5789 91.5489 41.2981C91.3369 42.0244 91.2521 42.7791 91.2945 43.5695C91.3369 44.3599 91.4641 45.1217 91.6761 45.8694C91.8882 46.617 92.2062 47.2009 92.6302 47.6281L101.259 57.7319C102.44 59.2272 103.556 60.7794 104.588 62.3957C105.627 64.0192 106.376 65.55 106.842 66.9955C107.182 68.2344 107.351 69.5517 107.351 70.9615C107.351 72.3714 107.21 73.7029 106.941 74.956C106.666 76.2164 106.277 77.3627 105.768 78.4094C105.259 79.4561 104.602 80.1468 103.804 80.4886L103.782 80.4815Z" fill="white"/>
<path d="M176.596 51.6511H157.734C156.179 51.6511 154.857 51.352 153.762 50.7468C152.666 50.1416 151.931 48.8955 151.55 46.9944C151.345 45.9406 151.246 44.5806 151.246 42.9002V37.8803C151.295 36.5203 151.345 35.317 151.401 34.2632C151.458 33.2094 151.529 32.3407 151.627 31.65C151.783 31.1872 152.094 30.4823 152.56 29.5353C153.034 28.5882 153.557 27.7124 154.143 26.9221C155.133 25.6689 156.257 24.7219 157.5 24.0953C158.744 23.4687 159.981 23.0913 161.204 22.9632C162.426 22.835 163.571 22.8991 164.638 23.1554C165.705 23.4117 166.532 23.7464 167.119 24.1523L173.19 28.6523C173.727 29.0368 174.115 29.1864 174.37 29.0938C174.624 29.0012 174.893 28.8303 175.168 28.574C175.677 27.9617 176.327 27.1784 177.112 26.2314C177.522 25.7472 177.939 25.2417 178.37 24.729L182.186 27.4988C182.49 27.7552 182.66 28.2892 182.681 29.0938C182.709 29.8984 182.144 31.0733 180.999 32.6113C180.285 33.4799 179.487 33.9784 178.596 34.0923C177.706 34.2062 176.893 34.0211 176.151 33.5369L170.384 29.7702C169.338 29.0796 168.384 28.6666 167.522 28.5384C166.659 28.4102 165.889 28.4458 165.211 28.6523C164.532 28.8588 163.953 29.1864 163.458 29.6349C162.963 30.0835 162.56 30.5748 162.257 31.116C162.101 31.3723 161.981 31.7497 161.896 32.2481C161.804 32.7465 161.804 33.2734 161.896 33.8217C161.981 34.37 162.193 34.9111 162.525 35.438C162.857 35.9649 163.387 36.4064 164.129 36.7624H172.412C174.193 36.7624 175.967 36.7767 177.741 36.798C179.508 36.8265 180.992 36.8336 182.186 36.8336C184.271 36.8835 185.981 37.3321 187.303 38.1794C188.624 39.0267 189.501 40.3582 189.939 42.181C190.094 42.8717 190.229 43.7973 190.356 44.9508C190.483 46.1043 190.561 47.3433 190.582 48.6605C190.603 49.9778 190.582 51.2666 190.504 52.5269C190.427 53.7801 190.314 54.8339 190.158 55.6812C189.953 56.6781 189.67 57.5325 189.303 58.2374C188.935 58.9423 188.476 59.5974 187.925 60.1955C187.374 60.8008 186.73 61.3846 185.981 61.9685C185.232 62.5452 184.384 63.1576 183.444 63.7984L175.161 69.5303C174.879 69.8365 174.653 70.2424 174.476 70.7408C174.299 71.2392 174.236 71.7092 174.285 72.1435C174.44 73.1973 174.893 74.1016 175.656 74.8563C176.419 75.6111 177.084 75.9885 177.642 75.9885L177.797 76.373L169.133 82.2188C168.144 82.3755 167.175 82.3185 166.228 82.0622C165.338 81.8058 164.504 81.2789 163.727 80.4886C162.949 79.6911 162.356 78.6942 161.953 77.4909C161.67 76.7504 161.543 75.9102 161.571 74.9703C161.599 74.0304 161.727 73.2685 161.953 72.6846C162.052 72.3286 162.179 72.0082 162.334 71.7448C162.49 71.4813 162.617 71.2392 162.716 71.0327C162.871 70.8262 163.02 70.6482 163.175 70.4916L175.317 61.8759C175.826 61.5199 176.342 61.1354 176.865 60.7438C177.388 60.3522 177.847 59.8751 178.243 59.3197C178.638 58.7715 178.914 58.1377 179.062 57.4328C179.211 56.7279 179.19 55.902 178.985 54.9549C178.886 54.3924 178.73 53.9083 178.525 53.5095C178.32 53.1108 178.08 52.7832 177.797 52.5269C177.543 52.2706 177.26 52.0285 176.956 51.7935C176.801 51.6938 176.674 51.6369 176.575 51.6369L176.596 51.6511Z" fill="white"/>
<path d="M213.932 80.809C211.791 80.8588 209.812 80.9015 207.996 80.9229C206.172 80.9514 204.321 81.0155 202.441 81.1151C200.738 81.2148 199.409 81.3928 198.469 81.6349C197.529 81.877 196.709 82.2046 196.024 82.6175H195.868C195.769 82.1547 195.699 81.5495 195.678 80.809C195.649 80.0685 195.614 79.3137 195.564 78.5589C195.515 77.8042 195.487 77.0993 195.487 76.4442V74.9632C195.487 73.5533 195.522 72.4283 195.6 71.5952C195.678 70.7621 195.826 70.1213 196.038 69.6727C196.257 69.2241 196.504 68.8895 196.78 68.6759C197.063 68.4551 197.402 68.27 197.812 68.1205C198.547 67.8143 199.974 67.5437 202.088 67.3159C204.201 67.088 206.717 66.9456 209.649 66.8958C211.84 66.8175 214.052 66.7961 216.293 66.8388C218.533 66.8744 220.618 66.9243 222.554 66.9741V62.6307C222.554 61.4273 222.54 60.1243 222.519 58.7287C222.491 57.3331 222.455 56.1084 222.406 55.0546C222.328 53.5451 221.932 52.4557 221.204 51.8077C220.476 51.1527 219.812 50.7753 219.197 50.6756H211.522C210.985 50.7254 210.462 50.8038 209.939 50.9035C209.416 51.0031 209.028 51.1313 208.773 51.288C208.469 51.5443 208.264 51.7721 208.165 51.9644C208.066 52.1566 208.01 52.4557 208.01 52.8687C208.059 53.4312 208.264 54.0578 208.618 54.7556C208.971 55.4462 209.367 56.0515 209.798 56.5641C210.462 57.3616 211.063 58.0167 211.614 58.5436C212.158 59.0705 212.703 59.5405 213.24 59.9463V60.3664L202.285 65.4076C201.621 65.5073 200.936 65.3649 200.222 64.9662C199.508 64.5674 198.879 63.9907 198.335 63.2359C197.791 62.4812 197.338 61.5982 196.978 60.6014C196.625 59.6045 196.441 58.5507 196.441 57.4471C196.441 56.5001 196.596 55.8094 196.9 55.3893C197.204 54.9692 197.649 54.6274 198.236 54.3711L206.441 51.2168C206.596 51.0601 206.618 50.8892 206.519 50.697C206.42 50.5047 206.293 50.405 206.137 50.405C205.656 50.6329 205.084 50.8038 204.441 50.9035C203.791 51.0031 203.289 51.0601 202.936 51.0601C201.614 51.1598 200.54 51.1527 199.713 51.0245C198.886 50.8963 198.208 50.6115 197.671 50.1772C197.317 49.871 197.034 49.3797 196.83 48.6961C196.625 48.0126 196.469 47.2151 196.356 46.2895C196.243 45.3638 196.186 44.3954 196.186 43.363C196.186 42.3305 196.215 41.3479 196.264 40.4009C196.391 39.1976 196.533 38.0583 196.681 36.976C196.829 35.8937 197.112 35.0749 197.522 34.5124C197.953 33.8217 198.582 33.3731 199.409 33.1666C200.236 32.9601 201.247 32.7821 202.441 32.6255L202.596 32.9317C202.646 33.544 202.738 34.0994 202.865 34.5836C202.964 34.9966 203.027 35.3739 203.056 35.7157C203.084 36.0646 203.119 36.2854 203.169 36.3922C203.218 36.5987 203.423 36.6983 203.777 36.6983H222.137C224.554 36.6983 226.66 37.2395 228.455 38.3147C230.25 39.3898 231.487 41.1343 232.18 43.5481C232.434 44.3456 232.597 45.1644 232.675 46.0118C232.752 46.8591 232.788 47.6423 232.788 48.3544V66.9741C232.788 67.7431 232.773 68.7898 232.752 70.1071C232.724 71.4243 232.738 72.8413 232.788 74.3579C232.837 75.9956 232.879 77.3129 232.901 78.3026C232.929 79.2923 232.936 79.926 232.936 80.2037C232.936 80.8731 232.59 81.2006 231.904 81.2006C230.985 81.1508 229.798 81.1009 228.335 81.0439C226.872 80.9941 225.318 80.9514 223.678 80.93C222.038 80.9015 220.37 80.8802 218.674 80.8517C216.978 80.8232 215.395 80.8161 213.918 80.8161L213.932 80.809Z" fill="white"/>
<path d="M248.979 66.6181L248.328 60.2311C248.173 58.6646 248.229 57.44 248.498 56.5357C248.767 55.6385 249.127 54.9621 249.586 54.4992L256.23 52.0356C256.279 51.879 256.279 51.7152 256.23 51.5372C256.18 51.3592 256.074 51.2666 255.926 51.2666C255.516 51.3663 255.106 51.4446 254.689 51.4944C254.272 51.5443 253.883 51.5941 253.523 51.6511C252.399 51.7508 251.283 51.8077 250.166 51.8077H246.922C245.473 51.8077 244.399 51.7437 243.699 51.6155C243 51.4873 242.279 51.0743 241.544 50.3837C240.604 49.5648 240.067 48.2048 239.94 46.3037C239.812 44.4026 239.777 42.4801 239.827 40.5362C239.876 39.3329 239.989 38.2007 240.173 37.154C240.357 36.1073 240.653 35.2956 241.092 34.7331C241.551 34.0424 242.145 33.5939 242.887 33.3874C243.629 33.1809 244.696 33.0029 246.095 32.8462L246.173 33.0741C246.222 33.6366 246.3 34.192 246.399 34.726C246.498 35.139 246.576 35.5306 246.625 35.9009C246.675 36.2711 246.703 36.5132 246.703 36.6129C246.752 36.8194 246.971 36.9191 247.353 36.9191C247.812 36.9191 248.47 36.9048 249.339 36.8835C250.201 36.855 251.134 36.8479 252.124 36.8479H258.039C259.82 36.8977 260.986 37.4389 261.53 38.4642C262.074 39.4895 262.35 40.6857 262.35 42.0386V46.6953C262.3 48.39 262.208 49.5079 262.081 50.0633C261.954 50.6115 261.7 51.0174 261.318 51.2737C261.113 51.2239 260.774 51.1954 260.307 51.1954C259.841 51.1954 259.473 51.2452 259.219 51.352C258.632 51.8149 258.279 52.3631 258.152 53.004C258.025 53.6448 258.152 54.6416 258.533 56.0016C258.788 56.9486 259.092 58.1021 259.452 59.4621C259.806 60.8221 260.18 62.2106 260.576 63.6347C260.972 65.0587 261.339 66.4116 261.685 67.6933C262.032 68.9749 262.3 70.0145 262.505 70.812C262.604 71.2748 262.696 71.7519 262.774 72.2574C262.852 72.763 262.915 73.1332 262.965 73.3896C263.014 73.8239 263.028 74.3223 263 74.8706C262.972 75.4189 262.965 76.0027 262.965 76.6222C262.915 78.3169 262.76 79.5273 262.505 80.2536C262.251 80.987 261.954 81.4 261.629 81.5068C260.124 81.3501 257.968 81.2077 255.155 81.0867C252.343 80.9585 248.795 80.9728 244.526 81.1223C242.795 81.222 241.544 81.3857 240.766 81.5993C239.989 81.8201 239.261 82.1334 238.569 82.5392H238.413C238.314 82.1262 238.243 81.5495 238.222 80.809C238.194 80.0685 238.159 79.3137 238.109 78.5589C238.06 77.8042 238.031 77.0993 238.031 76.4442V74.9632C238.031 73.297 238.095 71.9726 238.222 71.0042C238.349 70.0288 238.533 69.2669 238.773 68.7186C239.014 68.1703 239.304 67.793 239.636 67.5865C239.968 67.38 240.35 67.202 240.781 67.0453C241.721 66.7107 242.908 66.5469 244.328 66.5469C245.749 66.5469 247.304 66.5754 248.986 66.6252L248.979 66.6181Z" fill="white"/>
<path d="M253.445 19.7661H252.018V41.234H253.445V19.7661Z" fill="white"/>
<path d="M252.724 22.1372C254.024 22.1372 255.078 21.0756 255.078 19.7661C255.078 18.4566 254.024 17.3951 252.724 17.3951C251.424 17.3951 250.371 18.4566 250.371 19.7661C250.371 21.0756 251.424 22.1372 252.724 22.1372Z" fill="white"/>
<path d="M256.505 27.3066H255.078V41.234H256.505V27.3066Z" fill="white"/>
<path d="M257.431 29.6777C258.731 29.6777 259.784 28.6161 259.784 27.3066C259.784 25.9971 258.731 24.9355 257.431 24.9355C256.131 24.9355 255.078 25.9971 255.078 27.3066C255.078 28.6161 256.131 29.6777 257.431 29.6777Z" fill="white"/>
<path d="M248.95 41.234H250.378V27.3066H248.95V41.234Z" fill="white"/>
<path d="M248.025 29.6777C249.324 29.6777 250.378 28.6161 250.378 27.3066C250.378 25.9971 249.324 24.9355 248.025 24.9355C246.725 24.9355 245.671 25.9971 245.671 27.3066C245.671 28.6161 246.725 29.6777 248.025 29.6777Z" fill="white"/>
<path d="M250.512 92.7783C252.639 92.7783 254.364 91.0409 254.364 88.8977C254.364 86.7545 252.639 85.0171 250.512 85.0171C248.385 85.0171 246.661 86.7545 246.661 88.8977C246.661 91.0409 248.385 92.7783 250.512 92.7783Z" fill="white"/>
<path d="M214.215 92.7783C216.342 92.7783 218.067 91.0409 218.067 88.8977C218.067 86.7545 216.342 85.0171 214.215 85.0171C212.088 85.0171 210.363 86.7545 210.363 88.8977C210.363 91.0409 212.088 92.7783 214.215 92.7783Z" fill="white"/>
<path d="M62.8701 32.7038C64.9973 32.7038 66.7217 30.9664 66.7217 28.8232C66.7217 26.68 64.9973 24.9426 62.8701 24.9426C60.7429 24.9426 59.0185 26.68 59.0185 28.8232C59.0185 30.9664 60.7429 32.7038 62.8701 32.7038Z" fill="white"/>
<path d="M214.215 104C216.342 104 218.067 102.263 218.067 100.119C218.067 97.9762 216.342 96.2388 214.215 96.2388C212.088 96.2388 210.363 97.9762 210.363 100.119C210.363 102.263 212.088 104 214.215 104Z" fill="white"/>
</g>
<defs>
<clipPath id="clip0_88_355">
<rect width="263" height="104" fill="white"/>
</clipPath>
</defs>
</svg>
