<svg width="46" height="47" viewBox="0 0 46 47" fill="none" xmlns="http://www.w3.org/2000/svg">
<path d="M17.3751 41.6666C18.005 41.6666 18.6091 41.9125 19.0545 42.35C19.4999 42.7876 19.7501 43.3811 19.7501 44C19.7501 44.6188 19.4999 45.2123 19.0545 45.6499C18.6091 46.0875 18.005 46.3333 17.3751 46.3333C16.7452 46.3333 16.1411 46.0875 15.6957 45.6499C15.2503 45.2123 15.0001 44.6188 15.0001 44C15.0001 43.3811 15.2503 42.7876 15.6957 42.35C16.1411 41.9125 16.7452 41.6666 17.3751 41.6666ZM34.0001 41.6666C34.63 41.6666 35.2341 41.9125 35.6795 42.35C36.1249 42.7876 36.3751 43.3811 36.3751 44C36.3751 44.6188 36.1249 45.2123 35.6795 45.6499C35.2341 46.0875 34.63 46.3333 34.0001 46.3333C33.3702 46.3333 32.7661 46.0875 32.3207 45.6499C31.8753 45.2123 31.6251 44.6188 31.6251 44C31.6251 43.3811 31.8753 42.7876 32.3207 42.35C32.7661 41.9125 33.3702 41.6666 34.0001 41.6666ZM4.30074 1.13896L4.55011 1.30229L8.60661 4.28896C9.29694 4.79785 9.83309 5.4819 10.1575 6.26763L10.3 6.66663H40.8092C41.4531 6.66647 42.0903 6.79492 42.6821 7.04418C43.2739 7.29344 43.8079 7.6583 44.2517 8.11659C44.6955 8.57489 45.0399 9.11705 45.2638 9.71013C45.4878 10.3032 45.5867 10.9348 45.5545 11.5666L45.5236 11.912L44.4382 20.4403C44.1125 23.0068 42.9279 25.3942 41.0708 27.2272C39.2136 29.0603 36.789 30.2351 34.1782 30.567L33.6415 30.6206L16.2731 32.044L16.8906 34.6666H37.5626C38.168 34.6673 38.7502 34.895 39.1904 35.3033C39.6305 35.7115 39.8954 36.2695 39.9309 36.8632C39.9664 37.4569 39.7698 38.0415 39.3812 38.4976C38.9927 38.9536 38.4416 39.2467 37.8405 39.317L37.5626 39.3333H16.8906C15.8827 39.3335 14.9008 39.0186 14.087 38.4343C13.2733 37.85 12.6698 37.0265 12.3639 36.083L12.2617 35.7166L5.75424 8.01996L1.70011 5.0333C1.23674 4.69209 0.916223 4.19631 0.798831 3.63921C0.681439 3.0821 0.775264 2.50206 1.06266 2.00815C1.35006 1.51425 1.81122 1.14051 2.35943 0.957243C2.90764 0.773971 3.50511 0.793785 4.03949 1.01296L4.30074 1.13896ZM40.8092 11.3333H11.4067L15.1949 27.4473L33.2449 25.9703C34.8739 25.8371 36.4068 25.1577 37.5865 24.0459C38.7661 22.934 39.5208 21.4575 39.7239 19.864L40.8092 11.3333Z" fill="#000A3D"/>
</svg>
