<svg width="18" height="18" viewBox="0 0 18 18" fill="none" xmlns="http://www.w3.org/2000/svg">
<path fill-rule="evenodd" clip-rule="evenodd" d="M8.03055 1.92144C6.41052 1.92144 4.85684 2.565 3.7113 3.71053C2.56577 4.85607 1.92221 6.40975 1.92221 8.02978C1.92221 9.64981 2.56577 11.2035 3.7113 12.349C4.85684 13.4946 6.41052 14.1381 8.03055 14.1381C9.65058 14.1381 11.2043 13.4946 12.3498 12.349C13.4953 11.2035 14.1389 9.64981 14.1389 8.02978C14.1389 6.40975 13.4953 4.85607 12.3498 3.71053C11.2043 2.565 9.65058 1.92144 8.03055 1.92144ZM0.0427246 8.02978C0.0428331 6.75604 0.347544 5.5008 0.931435 4.36878C1.51533 3.23675 2.36146 2.26078 3.39926 1.52227C4.43705 0.783768 5.63641 0.304151 6.89726 0.123437C8.15811 -0.0572771 9.4439 0.0661514 10.6473 0.483425C11.8508 0.900698 12.937 1.59972 13.8154 2.52216C14.6937 3.4446 15.3387 4.56372 15.6966 5.78615C16.0545 7.00858 16.1148 8.29886 15.8726 9.54936C15.6304 10.7999 15.0927 11.9743 14.3043 12.9747L17.7362 16.4067C17.9074 16.5839 18.0021 16.8213 18 17.0677C17.9978 17.3141 17.899 17.5498 17.7248 17.724C17.5505 17.8982 17.3148 17.9971 17.0684 17.9992C16.822 18.0014 16.5847 17.9066 16.4074 17.7355L12.9755 14.3035C11.7976 15.232 10.3822 15.8101 8.8911 15.9716C7.40003 16.1332 5.89359 15.8717 4.54419 15.2171C3.19478 14.5625 2.05693 13.5413 1.26085 12.2702C0.46477 10.9991 0.0426239 9.52957 0.0427246 8.02978ZM7.0908 4.74067C7.0908 4.49144 7.18981 4.25241 7.36605 4.07617C7.54229 3.89994 7.78131 3.80093 8.03055 3.80093C9.15211 3.80093 10.2277 4.24647 11.0208 5.03953C11.8139 5.83259 12.2594 6.90822 12.2594 8.02978C12.2594 8.27901 12.1604 8.51804 11.9842 8.69428C11.8079 8.87051 11.5689 8.96952 11.3197 8.96952C11.0704 8.96952 10.8314 8.87051 10.6552 8.69428C10.4789 8.51804 10.3799 8.27901 10.3799 8.02978C10.3799 7.40669 10.1324 6.80912 9.6918 6.36853C9.25121 5.92794 8.65364 5.68042 8.03055 5.68042C7.78131 5.68042 7.54229 5.58141 7.36605 5.40517C7.18981 5.22894 7.0908 4.98991 7.0908 4.74067Z" fill="white"/>
</svg>
